<svg xmlns="http://www.w3.org/2000/svg" viewBox="0 0 900 250" width="900" font-family="-apple-system, BlinkMacSystemFont, 'Segoe UI', Roboto, sans-serif">
  <defs>
    <marker id="ifA" viewBox="0 0 10 10" refX="8" refY="5" markerWidth="7" markerHeight="7" orient="auto-start-reverse">
      <path d="M0 0 L10 5 L0 10 z" fill="#D97757"/>
    </marker>
  </defs>

  <rect x="2" y="2" width="896" height="246" rx="14" fill="#FAF9F7" stroke="#E7E2DC"/>

  <text x="40" y="44" font-size="21" font-weight="700" fill="#1A1A1A">How <tspan font-family="ui-monospace, SFMono-Regular, Menlo, monospace" fill="#B4502F">ccsk init</tspan> works</text>

  <!-- steps -->
  <g>
    <!-- 1 Confirm -->
    <rect x="30" y="86" width="120" height="78" rx="10" fill="#FFFFFF" stroke="#E7E2DC"/>
    <text x="90" y="116" text-anchor="middle" font-size="14" font-weight="700" fill="#1A1A1A">Confirm</text>
    <text x="90" y="138" text-anchor="middle" font-size="11" fill="#6B7280">install here?</text>
    <!-- 2 Auth -->
    <rect x="174" y="86" width="120" height="78" rx="10" fill="#FFFFFF" stroke="#E7E2DC"/>
    <text x="234" y="116" text-anchor="middle" font-size="14" font-weight="700" fill="#1A1A1A">Auth</text>
    <text x="234" y="138" text-anchor="middle" font-size="11" fill="#6B7280">GitHub access</text>
    <!-- 3 Fetch -->
    <rect x="318" y="86" width="120" height="78" rx="10" fill="#FFFFFF" stroke="#E7E2DC"/>
    <text x="378" y="116" text-anchor="middle" font-size="14" font-weight="700" fill="#1A1A1A">Fetch</text>
    <text x="378" y="136" text-anchor="middle" font-size="11" fill="#6B7280">clone + cache</text>
    <text x="378" y="151" text-anchor="middle" font-size="10" fill="#9AA0A6">~/.ccsk/kits</text>
    <!-- 4 Copy -->
    <rect x="462" y="86" width="120" height="78" rx="10" fill="#FFFFFF" stroke="#D97757"/>
    <text x="522" y="116" text-anchor="middle" font-size="14" font-weight="700" fill="#1A1A1A">Copy</text>
    <text x="522" y="138" text-anchor="middle" font-size="11" fill="#B4502F" font-family="ui-monospace, SFMono-Regular, Menlo, monospace">_dot_ → .</text>
    <!-- 5 Setup -->
    <rect x="606" y="86" width="120" height="78" rx="10" fill="#FFFFFF" stroke="#E7E2DC"/>
    <text x="666" y="112" text-anchor="middle" font-size="14" font-weight="700" fill="#1A1A1A">Setup</text>
    <text x="666" y="132" text-anchor="middle" font-size="11" fill="#6B7280">ADD · RTK</text>
    <text x="666" y="147" text-anchor="middle" font-size="10" fill="#9AA0A6">design (opt)</text>
    <!-- 6 Ready -->
    <rect x="750" y="86" width="120" height="78" rx="10" fill="#EAF5EF" stroke="#3F9B6B"/>
    <text x="810" y="116" text-anchor="middle" font-size="14" font-weight="700" fill="#1A1A1A">Ready ✓</text>
    <text x="810" y="138" text-anchor="middle" font-size="11" fill="#3F9B6B">open Claude</text>
  </g>

  <!-- arrows -->
  <g stroke="#D97757" stroke-width="2">
    <line x1="152" y1="125" x2="170" y2="125" marker-end="url(#ifA)"/>
    <line x1="296" y1="125" x2="314" y2="125" marker-end="url(#ifA)"/>
    <line x1="440" y1="125" x2="458" y2="125" marker-end="url(#ifA)"/>
    <line x1="584" y1="125" x2="602" y2="125" marker-end="url(#ifA)"/>
    <line x1="728" y1="125" x2="746" y2="125" marker-end="url(#ifA)"/>
  </g>

  <text x="450" y="208" text-anchor="middle" font-size="12" fill="#9AA0A6">One command. Auth-aware, cached, and idempotent — overwrites shipped files, never touches your code.</text>
</svg>
