<svg xmlns="http://www.w3.org/2000/svg" viewBox="0 0 900 250" width="900" font-family="-apple-system, BlinkMacSystemFont, 'Segoe UI', Roboto, sans-serif">
  <defs>
    <marker id="ifA" viewBox="0 0 10 10" refX="8" refY="5" markerWidth="6" markerHeight="6" orient="auto-start-reverse">
      <path d="M0 0 L10 5 L0 10 z" fill="#D97757"/>
    </marker>
  </defs>

  <rect x="2" y="2" width="896" height="246" rx="14" fill="#FAF9F7" stroke="#E7E2DC"/>

  <text x="40" y="44" font-size="21" font-weight="700" fill="#1A1A1A">How <tspan font-family="ui-monospace, SFMono-Regular, Menlo, monospace" fill="#B4502F">ccsk init</tspan> works</text>

  <!-- steps (7) -->
  <g>
    <rect x="24" y="80" width="104" height="84" rx="10" fill="#FFFFFF" stroke="#E7E2DC"/>
    <text x="76" y="110" text-anchor="middle" font-size="13" font-weight="700" fill="#1A1A1A">Confirm</text>
    <text x="76" y="130" text-anchor="middle" font-size="10" fill="#6B7280">install here?</text>

    <rect x="148" y="80" width="104" height="84" rx="10" fill="#FFFFFF" stroke="#E7E2DC"/>
    <text x="200" y="110" text-anchor="middle" font-size="13" font-weight="700" fill="#1A1A1A">Auth</text>
    <text x="200" y="130" text-anchor="middle" font-size="10" fill="#6B7280">GitHub access</text>

    <rect x="272" y="80" width="104" height="84" rx="10" fill="#FFFFFF" stroke="#D97757"/>
    <text x="324" y="110" text-anchor="middle" font-size="13" font-weight="700" fill="#1A1A1A">Version</text>
    <text x="324" y="129" text-anchor="middle" font-size="10" fill="#6B7280">pick · --pre</text>
    <text x="324" y="143" text-anchor="middle" font-size="10" fill="#9AA0A6">stable default</text>

    <rect x="396" y="80" width="104" height="84" rx="10" fill="#FFFFFF" stroke="#E7E2DC"/>
    <text x="448" y="110" text-anchor="middle" font-size="13" font-weight="700" fill="#1A1A1A">Fetch</text>
    <text x="448" y="129" text-anchor="middle" font-size="10" fill="#6B7280">clone + cache</text>
    <text x="448" y="143" text-anchor="middle" font-size="9" fill="#9AA0A6">~/.ccsk/kit/&lt;v&gt;</text>

    <rect x="520" y="80" width="104" height="84" rx="10" fill="#FFFFFF" stroke="#E7E2DC"/>
    <text x="572" y="106" text-anchor="middle" font-size="13" font-weight="700" fill="#1A1A1A">Materialize</text>
    <text x="572" y="125" text-anchor="middle" font-size="10" fill="#B4502F" font-family="ui-monospace, SFMono-Regular, Menlo, monospace">_dot_ → .</text>
    <text x="572" y="139" text-anchor="middle" font-size="9" fill="#9AA0A6">CLAUDE·rules·docs·.ccsk</text>

    <rect x="644" y="80" width="104" height="84" rx="10" fill="#FFFFFF" stroke="#D97757"/>
    <text x="696" y="110" text-anchor="middle" font-size="13" font-weight="700" fill="#1A1A1A">Plugin</text>
    <text x="696" y="129" text-anchor="middle" font-size="10" fill="#B4502F" font-family="ui-monospace, SFMono-Regular, Menlo, monospace">ccsk@ccsk-kit</text>
    <text x="696" y="143" text-anchor="middle" font-size="9" fill="#9AA0A6">/ccsk: commands</text>

    <rect x="768" y="80" width="104" height="84" rx="10" fill="#EAF5EF" stroke="#3F9B6B"/>
    <text x="820" y="110" text-anchor="middle" font-size="13" font-weight="700" fill="#1A1A1A">Ready ✓</text>
    <text x="820" y="130" text-anchor="middle" font-size="10" fill="#3F9B6B">/ccsk:plan</text>
  </g>

  <!-- arrows -->
  <g stroke="#D97757" stroke-width="2">
    <line x1="130" y1="122" x2="146" y2="122" marker-end="url(#ifA)"/>
    <line x1="254" y1="122" x2="270" y2="122" marker-end="url(#ifA)"/>
    <line x1="378" y1="122" x2="394" y2="122" marker-end="url(#ifA)"/>
    <line x1="502" y1="122" x2="518" y2="122" marker-end="url(#ifA)"/>
    <line x1="626" y1="122" x2="642" y2="122" marker-end="url(#ifA)"/>
    <line x1="750" y1="122" x2="766" y2="122" marker-end="url(#ifA)"/>
  </g>

  <text x="450" y="196" text-anchor="middle" font-size="12" fill="#6B7280">Optional along the way: tool setup (gh · RTK · context-mode · Serena MCP) · ADD · a design reference.</text>
  <text x="450" y="222" text-anchor="middle" font-size="11" fill="#9AA0A6">Auth-aware, cached, idempotent — preserves your <tspan font-family="ui-monospace, SFMono-Regular, Menlo, monospace">.ccsk/</tspan> memory and never touches your code.</text>
</svg>
